<?xml version="1.0"?>
<svg width="124.507587551mm" height="60.4359532879mm" viewBox="0 0 124.507587551 60.4359532879" xmlns="http://www.w3.org/2000/svg" version="1.1">
  <g id="Sketch" transform="translate(62.213783,29.715303) scale(1,-1)">
    <g id = "dbcore" fill = "#ff8a5c">
      <path id="first"  d="M -21.5 -21.5 L -21.5 -10.5 A 21.5 8 180 0 1 21.5 -10.5L 21.5 -21.4999999707 A 21.5 8 180 1 0 -21.5 -21.5" />
      <path id="second"  d="M 21.500000159 -7.49999996875 L 21.5 3.50000003125 A 21.5 8 -180 0 0 -21.5 3.5L -21.499999841 -7.5 A 21.5 8 -180 1 1 21.5 -7.5" />
      <path id="third"  d="M 21.499999813 6.50000100486 L 21.5 17.5000010049 A 21.5 8 -180 1 0 -21.5 17.5L -21.500000187 6.5 A 21.5 8 -180 0 1 21.5 6.5" />
      <path id="fourth"  d="M -21.5 20.5 A 21.5 8.0 0.0 0 0 21.5 20.5 A 21.5 8.0 0.0 0 0 -21.5 20.5 " />
    </g>

    <g id = "ring" fill = "#411266">
      <path id="ring"  d="M -24.4999666793 8.25244438303 L -24.4999666793 6.71738742607 A 58 15 -162 1 1 24.3829 21.4505A 24.5 9.73167 180 0 1 23.7421 22.9019A 64 16.3 -162 1 0 -24.5 8.25244" />
    </g>
  </g>
</svg>