<?xml version="1.0"?>
<!DOCTYPE svg PUBLIC "-//W3C//DTD SVG 1.1//EN" "http://www.w3.org/Graphics/SVG/1.1/DTD/svg11.dtd">
<svg width="557.994534642mm" height="133.292620557mm" viewBox="0 0 557.994534642 133.292620557" xmlns="http://www.w3.org/2000/svg" version="1.1">
<g id="Sketch" transform="translate(255.470535,127.822086) scale(1,-1)">
  <g id = "letters" fill = "#474747">
    <path d="M 96.6963696305 67.9730840278 L 65.0 0.0 L 140.0 0.0 L 171.696369631 67.9730840278 L 271.696369631 67.9730840278 L 297.053465335 122.35155125 L 0.0 122.35155125 L -25.3570957044 67.9730840278 L 96.6963696305 67.9730840278 "/>
  </g>
  <g id = "keys" fill = "#1cc6e8">
  <path d="M 180.356299964 54.3767607522 L 265.360756528 54.3767607522 L 256.908391293 36.2506050115 L 199.108861569 36.2506050115 L 190.657292074 18.1261557407 L 248.452367486 18.1261557407 L 240.000002251 0.0 L 155.0 0.0 L 180.356299964 54.3767607522 "/>
    <path d="M -40.0 0.0 L 50.0 0.0 L 75.3579693108 54.3803406772 L -14.6420306892 54.3803406772 L -40.0 0.0 "/>
    <path d="M -145.0 0.0 L -55.0 0.0 L -29.6429042956 54.3784672222 L -119.642904296 54.3784672222 L -145.0 0.0 "/>
    <path d="M -224.642904296 54.3784672222 L -250.0 0.0 L -160.0 0.0 L -134.642904296 54.3784672222 L -224.642904296 54.3784672222 "/>
    <path d="M -130.357095704 67.9730840278 L -40.3570957044 67.9730840278 L -15.0000000001 122.35155125 L -105.0 122.35155125 L -130.357095704 67.9730840278 "/>
  </g>
</g>
</svg>